<svg xmlns="http://www.w3.org/2000/svg" xmlns:xlink="http://www.w3.org/1999/xlink" width="32" height="32" viewBox="0 0 32 32">
  <defs>
    <clipPath id="clip-path">
      <rect id="Rectangle_4983" data-name="Rectangle 4983" width="32" height="32" fill="none"/>
    </clipPath>
  </defs>
  <g id="Groupe_6980" data-name="Groupe 6980" transform="translate(0 0)">
    <g id="Groupe_6979" data-name="Groupe 6979" transform="translate(0 0)" clip-path="url(#clip-path)">
      <path id="Tracé_8962" data-name="Tracé 8962" d="M16,22.857A6.857,6.857,0,1,0,9.143,16,6.865,6.865,0,0,0,16,22.857M0,14.476a.763.763,0,0,1,.762-.762H4.19a.761.761,0,0,0,.738-.571,11.405,11.405,0,0,1,1.223-2.95.762.762,0,0,0-.119-.925L3.609,6.844a.765.765,0,0,1,0-1.079L5.765,3.609a.765.765,0,0,1,1.079,0L9.268,6.033a.761.761,0,0,0,.925.117,11.405,11.405,0,0,1,2.95-1.223.761.761,0,0,0,.571-.738V.762A.763.763,0,0,1,14.476,0h3.047a.763.763,0,0,1,.762.762V4.19a.761.761,0,0,0,.571.738,11.405,11.405,0,0,1,2.95,1.223.762.762,0,0,0,.927-.117l2.422-2.424a.782.782,0,0,1,1.079,0l2.156,2.156a.768.768,0,0,1,0,1.079L25.967,9.268a.762.762,0,0,0-.117.925,11.405,11.405,0,0,1,1.223,2.95.761.761,0,0,0,.738.571h3.427a.762.762,0,0,1,.762.762v3.047a.762.762,0,0,1-.762.762H27.81a.761.761,0,0,0-.738.571,11.459,11.459,0,0,1-1.223,2.95.761.761,0,0,0,.117.925l2.422,2.425a.762.762,0,0,1,0,1.078l-2.156,2.157a.785.785,0,0,1-1.079,0l-2.422-2.424a.762.762,0,0,0-.927-.117,11.467,11.467,0,0,1-2.949,1.221.761.761,0,0,0-.571.738v3.427a.763.763,0,0,1-.762.762H14.476a.763.763,0,0,1-.762-.762V27.81a.761.761,0,0,0-.571-.738,11.405,11.405,0,0,1-2.95-1.223.768.768,0,0,0-.927.117L6.843,28.391a.763.763,0,0,1-1.078,0L3.608,26.235a.765.765,0,0,1,0-1.079l2.424-2.424a.759.759,0,0,0,.117-.925,11.455,11.455,0,0,1-1.221-2.95.761.761,0,0,0-.738-.571H.762A.763.763,0,0,1,0,17.524Z" transform="translate(0 0)" fill="#fff"/>
    </g>
  </g>
</svg>
