<svg xmlns="http://www.w3.org/2000/svg" xmlns:xlink="http://www.w3.org/1999/xlink" width="31.917" height="25.223" viewBox="0 0 31.917 25.223">
  <defs>
    <clipPath id="clip-path">
      <rect id="Rectangle_4982" data-name="Rectangle 4982" width="31.917" height="25.223" fill="none"/>
    </clipPath>
  </defs>
  <g id="Groupe_6977" data-name="Groupe 6977" clip-path="url(#clip-path)">
    <path id="Tracé_8957" data-name="Tracé 8957" d="M6.619,3.572l.56,2.39a.934.934,0,0,1-.631,1.1L4.521,7.7a.928.928,0,0,0-.646,1.025,15.315,15.315,0,0,0,1.572,5.117,15.219,15.219,0,0,0,2.827,4.548.929.929,0,0,0,1.2.186l1.81-1.113a.933.933,0,0,1,1.245.249l1.481,2.054,1.667,2.311a.933.933,0,0,1-.176,1.277l-1.708,1.359a2.285,2.285,0,0,1-1.624.5c-1.93-.175-5.823-1.522-9.691-10.02S.148,2.876,1.282,1.306a2.289,2.289,0,0,1,1.445-.9l2.149-.4A.935.935,0,0,1,5.953.721Z" transform="translate(0 0)" fill="#fff"/>
    <path id="Tracé_8958" data-name="Tracé 8958" d="M13.1,6.78a6.641,6.641,0,0,0-6.633,6.3l.669-.414a2.427,2.427,0,0,1,3.231.646l3.148,4.367a2.4,2.4,0,0,1,.228.388h1.309V14.119a7.815,7.815,0,0,1,2.438-5.672A6.61,6.61,0,0,0,13.1,6.78" transform="translate(3.366 3.53)" fill="#fff"/>
    <path id="Tracé_8959" data-name="Tracé 8959" d="M9.925,8.417a4.527,4.527,0,1,0-2.077-3.8,4.493,4.493,0,0,0,2.077,3.8" transform="translate(4.086 0.043)" fill="#fff"/>
    <path id="Tracé_8960" data-name="Tracé 8960" d="M19.208,7.891A5.648,5.648,0,0,0,13.56,13.54v2.985a.963.963,0,0,0,.963.964h9.372a.964.964,0,0,0,.963-.964V13.54a5.651,5.651,0,0,0-5.649-5.649" transform="translate(7.06 4.108)" fill="#fff"/>
    <path id="Tracé_8961" data-name="Tracé 8961" d="M16.183,9.036A3.84,3.84,0,1,0,14.74,6.051a3.82,3.82,0,0,0,1.443,2.985" transform="translate(7.674 1.143)" fill="#fff"/>
  </g>
</svg>
