<svg xmlns="http://www.w3.org/2000/svg" width="21.243" height="14.501" viewBox="0 0 21.243 14.501">
  <g id="Icon_ionic-ios-arrow-round-back" data-name="Icon ionic-ios-arrow-round-back" transform="translate(-7.382 -10.752)" fill="#fff">
    <path d="M 14.58274555206299 25.00264930725098 C 14.27286529541016 25.00264930725098 13.98037528991699 24.88081932067871 13.7591552734375 24.65959930419922 L 7.964765071868896 18.8230094909668 L 7.961255073547363 18.81948089599609 L 7.957885265350342 18.81579971313477 C 7.856965065002441 18.70569038391113 7.780235290527344 18.58892059326172 7.723305225372314 18.45881080627441 C 7.662745475769043 18.32037925720215 7.632035255432129 18.16838073730469 7.632035255432129 18.00703048706055 C 7.632035255432129 17.70430946350098 7.749165058135986 17.41559028625488 7.961835384368896 17.19405937194824 L 13.7562894821167 11.35736179351807 C 13.97369289398193 11.12795162200928 14.26756954193115 11.00164985656738 14.58415508270264 11.00164985656738 C 14.88718509674072 11.00164985656738 15.1735954284668 11.1188497543335 15.39064502716064 11.33164024353027 C 15.84766483306885 11.779709815979 15.85239505767822 12.51867008209229 15.4011754989624 12.97893047332764 L 11.55684375762939 16.83593940734863 L 27.21796607971191 16.83593940734863 C 27.85595512390137 16.83593940734863 28.3750057220459 17.35814094543457 28.3750057220459 18 C 28.3750057220459 18.64185905456543 27.85595512390137 19.16406059265137 27.21796607971191 19.16406059265137 L 11.55753517150879 19.16406059265137 L 15.4066047668457 23.01946067810059 C 15.85056495666504 23.4722900390625 15.84741497039795 24.20969009399414 15.4011754989624 24.66486930847168 C 15.17779541015625 24.88393020629883 14.88838481903076 25.00264930725098 14.58274555206299 25.00264930725098 Z" stroke="none"/>
    <path d="M 14.58415603637695 11.25165176391602 C 14.34754371643066 11.25165176391602 14.11156463623047 11.34486389160156 13.93593597412109 11.53125 L 8.142185211181641 17.36718940734863 C 7.973434448242188 17.54297065734863 7.882024765014648 17.76796913146973 7.882024765014648 18.00703048706055 C 7.882024765014648 18.1265697479248 7.903125762939453 18.2460994720459 7.95234489440918 18.35860061645508 C 8.001565933227539 18.47109985351563 8.064846038818359 18.5625 8.142185211181641 18.64687919616699 L 13.93593597412109 24.48281097412109 C 14.11612701416016 24.66300773620605 14.34954833984375 24.75264549255371 14.58274078369141 24.75264549255371 C 14.8136100769043 24.75264549255371 15.04425811767578 24.66474533081055 15.22265434265137 24.48983955383301 C 15.57421493530273 24.13125038146973 15.58124542236328 23.55469131469727 15.22968482971191 23.19609069824219 L 10.95468521118164 18.91406059265137 L 27.21796417236328 18.91406059265137 C 27.71718597412109 18.91406059265137 28.12499618530273 18.50625038146973 28.12499618530273 18 C 28.12499618530273 17.49374961853027 27.71718597412109 17.08593940734863 27.21796417236328 17.08593940734863 L 10.95468521118164 17.08593940734863 L 15.22265434265137 12.80390930175781 C 15.57421493530273 12.44531059265137 15.57421493530273 11.86171913146973 15.21562576293945 11.51016044616699 C 15.03983116149902 11.33780860900879 14.81170272827148 11.25165176391602 14.58415603637695 11.25165176391602 M 14.58415603637695 10.75164985656738 C 14.95302581787109 10.75164985656738 15.30160522460938 10.89422988891602 15.56566429138184 11.15312957763672 C 16.12111473083496 11.69768905639648 16.12741470336914 12.59524917602539 15.5796947479248 13.15394020080566 L 12.15898132324219 16.58593940734863 L 27.21796417236328 16.58593940734863 C 27.99380493164063 16.58593940734863 28.62499618530273 17.22027969360352 28.62499618530273 18 C 28.62499618530273 18.77972030639648 27.99380493164063 19.41406059265137 27.21796417236328 19.41406059265137 L 12.16038513183594 19.41406059265137 L 15.58352470397949 22.84283065795898 C 16.12369537353516 23.39379119873047 16.12054443359375 24.28820991516113 15.5796947479248 24.83987998962402 L 15.57622528076172 24.84341049194336 L 15.57269477844238 24.84687042236328 C 15.30580520629883 25.10853958129883 14.9542350769043 25.25265121459961 14.58274459838867 25.25265121459961 C 14.20608520507813 25.25265121459961 13.85080528259277 25.10480880737305 13.58237457275391 24.83634948730469 L 7.787355422973633 18.99914932250977 L 7.780324935913086 18.99206924438477 L 7.773584365844727 18.98472023010254 C 7.653764724731445 18.85399055480957 7.562404632568359 18.71474075317383 7.494264602661133 18.55900955200195 C 7.419784545898438 18.38878059387207 7.382024765014648 18.20306968688965 7.382024765014648 18.00703048706055 C 7.382024765014648 17.63945960998535 7.523895263671875 17.28924942016602 7.781496047973633 17.02091979980469 L 7.784395217895508 17.01790046691895 L 7.787355422973633 17.01491928100586 L 13.57709884643555 11.18301582336426 C 13.83829689025879 10.90876388549805 14.20489120483398 10.75164985656738 14.58415603637695 10.75164985656738 Z" stroke="none" fill="#fff"/>
  </g>
</svg>
