<svg xmlns="http://www.w3.org/2000/svg" xmlns:xlink="http://www.w3.org/1999/xlink" width="26.207" height="26.069" viewBox="0 0 26.207 26.069">
  <defs>
    <clipPath id="clip-path">
      <rect id="Rectangle_5020" data-name="Rectangle 5020" width="26.207" height="26.069" transform="translate(0 0)" fill="none"/>
    </clipPath>
  </defs>
  <g id="Groupe_7072" data-name="Groupe 7072" transform="translate(0 0)">
    <g id="Groupe_7071" data-name="Groupe 7071" clip-path="url(#clip-path)">
      <path id="Tracé_9003" data-name="Tracé 9003" d="M6.31,4.761l.533,2.278a.891.891,0,0,1-.6,1.052l-1.932.6a.885.885,0,0,0-.617.976,14.6,14.6,0,0,0,1.5,4.878,14.482,14.482,0,0,0,2.694,4.335.885.885,0,0,0,1.141.176L10.752,18a.891.891,0,0,1,1.188.238L13.352,20.2l1.588,2.2a.89.89,0,0,1-.168,1.217l-1.628,1.3a2.18,2.18,0,0,1-1.548.478c-1.839-.166-5.551-1.451-9.238-9.55S.141,4.1,1.222,2.6A2.187,2.187,0,0,1,2.6,1.747L4.647,1.37a.891.891,0,0,1,1.027.673Zm8.388,5a5.5,5.5,0,1,1,6.884,0,5.4,5.4,0,0,1-6.884,0M26.207,20.431v4.263a1.375,1.375,0,0,1-1.376,1.375H13.964l.062-.048,1.629-1.3a2.308,2.308,0,0,0,.435-3.154l-3-4.163a2.309,2.309,0,0,0-1.968-.955,8.068,8.068,0,0,1,15.086,3.978" fill="#fff"/>
    </g>
  </g>
</svg>
