<svg xmlns="http://www.w3.org/2000/svg" width="44" height="59.478" viewBox="0 0 44 59.478">
  <g id="Groupe_4540" data-name="Groupe 4540" transform="translate(-221 -231.522)">
    <g id="Groupe_4539" data-name="Groupe 4539" transform="translate(-57 8)">
      <g id="Groupe_4150" data-name="Groupe 4150" transform="translate(28.7 135.521)">
        <g id="Groupe_4148" data-name="Groupe 4148" transform="translate(252 88)">
          <path id="Tracé_7930" data-name="Tracé 7930" d="M1032.405,566.721a6.337,6.337,0,0,0-6.932-6.148,5.984,5.984,0,0,0-4.609,2.875c-.068-.031-.1-.035-.112-.052-.2-.241-.4-.486-.605-.727a5.685,5.685,0,0,0-5.064-2.111c-4.372.423-6.752,4.242-5.64,8.742a12.088,12.088,0,0,0,3.931,5.929c2.634,2.452,5.426,4.737,7.4,7.969a29.684,29.684,0,0,1,3.3-4.124c1.621-1.7,3.486-3.114,5.116-4.8A10.049,10.049,0,0,0,1032.405,566.721Z" transform="translate(-1001.212 -551.276)" fill="#e22124"/>
          <path id="Tracé_7931" data-name="Tracé 7931" d="M979.273,539.456a19.589,19.589,0,0,1,0-39.179v2.365A17.208,17.208,0,1,0,995.2,513.291l2.186-.9a19.6,19.6,0,0,1-18.111,27.068Z" transform="translate(-959.684 -500.277)" fill="#e22124"/>
          <g id="Groupe_4147" data-name="Groupe 4147" transform="translate(19.198)">
            <path id="Tracé_7932" data-name="Tracé 7932" d="M1084.359,502.695q-.225-.006-.452-.006v-2.413q.257,0,.513.007Z" transform="translate(-1083.907 -500.276)" fill="#e22124"/>
            <path id="Tracé_7933" data-name="Tracé 7933" d="M1106.844,512.605c-.141-.277-.293-.556-.45-.827l2.087-1.211c.18.31.352.627.513.943Zm-.945-1.63c-.172-.262-.353-.522-.537-.775l1.945-1.427c.211.287.416.584.611.881Zm-1.116-1.521c-.2-.242-.405-.482-.617-.713l1.782-1.627c.24.263.476.536.7.811Zm-1.271-1.393c-.224-.22-.456-.437-.69-.644l1.6-1.807c.266.236.53.482.784.732Zm-1.414-1.25c-.245-.195-.5-.385-.754-.566l1.4-1.968c.29.206.579.423.858.644Zm-1.537-1.092c-.266-.168-.539-.33-.811-.483l1.178-2.105c.31.173.62.358.922.549Zm-1.647-.921c-.281-.138-.57-.27-.857-.393l.944-2.22c.327.139.655.29.976.447Zm-1.735-.738c-.295-.107-.6-.207-.9-.3l.7-2.309c.341.1.684.217,1.019.339Zm-1.806-.546c-.3-.074-.614-.141-.922-.2l.446-2.371c.351.066.7.142,1.05.227Zm-1.853-.348c-.311-.041-.626-.075-.939-.1l.189-2.405c.355.028.714.066,1.066.112Z" transform="translate(-1091.186 -500.6)" fill="#e22124"/>
            <path id="Tracé_7934" data-name="Tracé 7934" d="M1183.963,575.533q-.086-.208-.177-.414l2.205-.979q.1.235.2.473Z" transform="translate(-1167.721 -562.259)" fill="#e22124"/>
          </g>
        </g>
        <path id="Tracé_7939" data-name="Tracé 7939" d="M5.953-6.848l1.033-1.7H8.96L5.423-2.835V.887H3.635V-2.835L.072-8.544H2.1L3.145-6.835Q4.417-4.716,4.562-4.451,4.92-5.087,5.953-6.848Z" transform="translate(267.553 111.374)" fill="#282424"/>
      </g>
      <text id="DONOR" transform="translate(300 280)" fill="#999" font-size="12" font-family="SegoeUI, Segoe UI" letter-spacing="0.01em"><tspan x="-21.571" y="0">DONOR</tspan></text>
    </g>
  </g>
</svg>
