<svg xmlns="http://www.w3.org/2000/svg" xmlns:xlink="http://www.w3.org/1999/xlink" width="32" height="25.141" viewBox="0 0 32 25.141">
  <defs>
    <clipPath id="clip-path">
      <rect id="Rectangle_4987" data-name="Rectangle 4987" width="32" height="25.141" fill="none"/>
    </clipPath>
  </defs>
  <g id="Groupe_6988" data-name="Groupe 6988" transform="translate(0 0)">
    <g id="Groupe_6987" data-name="Groupe 6987" transform="translate(0 0)" clip-path="url(#clip-path)">
      <path id="Tracé_8972" data-name="Tracé 8972" d="M6.6,3.561l.558,2.383a.934.934,0,0,1-.629,1.1l-2.02.631A.925.925,0,0,0,3.862,8.7a15.217,15.217,0,0,0,1.567,5.1A15.192,15.192,0,0,0,8.247,18.33a.926.926,0,0,0,1.193.185l1.8-1.11a.93.93,0,0,1,1.241.249L13.961,19.7l1.661,2.307a.928.928,0,0,1-.176,1.272l-1.7,1.355a2.271,2.271,0,0,1-1.617.5c-1.923-.174-5.8-1.517-9.66-9.987S.147,2.866,1.278,1.3A2.281,2.281,0,0,1,2.718.409L4.86.015a.932.932,0,0,1,1.075.7Z" transform="translate(0 0)" fill="#fff"/>
      <path id="Tracé_8973" data-name="Tracé 8973" d="M16.939,6.479a2.078,2.078,0,0,0-1.952,1.51,2.7,2.7,0,0,0-.061,1.04,3.463,3.463,0,0,0,1.742,2.336,2.118,2.118,0,0,0,.394.224L17.1,13.2c.006.215.042.282.042.535-.517.121-1.648.919-1.648,1.772s1.193,1.728,1.729,1.852c0,.553.041,1.055.041,1.649s-.127,1.317.412,1.317c.581,0,1.977-.825,1.977-1.895a1.647,1.647,0,0,0-.823-1.194l-.05.99c0,.1.43.649-.691,1.4,0-1.5.082-2.887.082-4.365a3.748,3.748,0,0,0-.988.494v.535c-.186-.1-.659-.459-.659-.618,0-.464.343-.584.825-.823l1.076-.488c.673-.277,1.519-.635,1.519-1.57a1.74,1.74,0,0,0-.947-1.4c0,1.272-.059,1.452-.743,1.813,0-.794.044-1.446.041-2.225l.041-1.649c0-.249.042-.3.042-.534a13.482,13.482,0,0,0-1.4-.165c0,.321.042.5.042.781s0,.55,0,.826a2.1,2.1,0,0,1-.618-.576c-.294-.409-.511-1.116-.071-1.514A1.064,1.064,0,0,1,17,7.9c.491-.056,2.422.69,2.017-.484a1.374,1.374,0,0,0-.594-.644l.041-2.142a.793.793,0,1,0-1.572.209c.021.255.008.562.008.82,0,.333.041.538.041.823M15.44.066h3.97A1.235,1.235,0,0,1,20.64,1.3V6.455l4.426-2.648a1.234,1.234,0,0,1,1.689.424l2.037,3.406a1.234,1.234,0,0,1-.424,1.689l-4.678,2.8,4.678,2.8a1.236,1.236,0,0,1,.424,1.69l-2.037,3.406a1.236,1.236,0,0,1-1.689.424L20.64,17.794v5.158a1.235,1.235,0,0,1-1.231,1.231H15.44a1.234,1.234,0,0,1-1.231-1.231v-.006a2.48,2.48,0,0,0,0-.859V17.794l-1.96,1.173-1.6-2.214a2.414,2.414,0,0,0-3.219-.644l-1.226.755-.152-.252a1.237,1.237,0,0,1,.424-1.69l4.679-2.8L6.48,9.326a1.235,1.235,0,0,1-.424-1.689L8.093,4.231a1.236,1.236,0,0,1,1.69-.424l4.426,2.648V1.3A1.234,1.234,0,0,1,15.44.066" transform="translate(3.034 0.034)" fill="#fff" fill-rule="evenodd"/>
    </g>
  </g>
</svg>
