<svg xmlns="http://www.w3.org/2000/svg" width="28.002" height="28" viewBox="0 0 28.002 28">
  <g id="FAQ_Icon" data-name="FAQ Icon" transform="translate(-493.738 -70.222)">
    <path id="Tracé_804" data-name="Tracé 804" d="M517.854,74.53A13.995,13.995,0,1,0,498.046,94.3a.252.252,0,0,0,.019.027c.08.079.168.144.251.219.225.2.45.407.687.6.127.1.258.2.389.293.224.167.448.333.68.487.159.1.323.2.487.3.215.13.43.261.654.379.188.1.382.186.572.277.211.1.417.2.632.29s.431.16.65.238.406.15.614.214c.235.071.478.126.717.186.2.048.394.1.6.145.276.055.556.089.836.127.173.024.341.059.516.075.458.046.92.07,1.385.07s.929-.024,1.387-.07c.174-.017.343-.051.516-.075.28-.038.56-.073.836-.127.2-.041.4-.1.6-.145.239-.06.481-.114.717-.186.209-.064.411-.141.614-.214s.436-.15.649-.238.422-.191.632-.29c.192-.092.385-.177.574-.277.223-.118.438-.249.654-.379.163-.1.327-.191.486-.3.234-.154.458-.321.682-.487.13-.1.262-.191.389-.293.237-.19.462-.392.687-.6.081-.075.17-.14.251-.219a.261.261,0,0,0,.019-.027,13.978,13.978,0,0,0,.424-19.765Zm-10.117-2.236a11.928,11.928,0,1,1-11.925,11.928A11.927,11.927,0,0,1,507.738,72.294Z" transform="translate(0 0)" fill="#fff" fill-rule="evenodd"/>
    <path id="Tracé_805" data-name="Tracé 805" d="M501.119,79.551a4.557,4.557,0,0,1,.381-2.028,3.287,3.287,0,0,1,1.094-1.349,5.147,5.147,0,0,1,1.488-.714,6.246,6.246,0,0,1,3.912.174,3.756,3.756,0,0,1,1.651,1.294,3.5,3.5,0,0,1,.649,2.123,3.824,3.824,0,0,1-.129,1,3.665,3.665,0,0,1-.307.8,3.345,3.345,0,0,1-.5.669,6.784,6.784,0,0,1-.547.543c-.149.13-.359.3-.622.5-.381.293-.648.5-.81.64a4.191,4.191,0,0,0-.495.515,1.542,1.542,0,0,0-.325.617,3.211,3.211,0,0,0-.077.765v.607h-2.219l-.011-.791a3.08,3.08,0,0,1,.476-1.879,6.2,6.2,0,0,1,1.5-1.513c.249-.189.44-.333.568-.437s.275-.236.435-.4a2.254,2.254,0,0,0,.359-.44,2.171,2.171,0,0,0,.2-.478,2.033,2.033,0,0,0,.081-.592,1.781,1.781,0,0,0-.638-1.494,2.494,2.494,0,0,0-1.582-.5,2.172,2.172,0,0,0-1.7.658,2.486,2.486,0,0,0-.6,1.706Zm3.275,10.607a1.321,1.321,0,0,1-.418-.994,1.3,1.3,0,0,1,.418-.991,1.521,1.521,0,0,1,2.047,0,1.305,1.305,0,0,1,.421.991,1.324,1.324,0,0,1-.421.994,1.5,1.5,0,0,1-2.047,0Z" transform="translate(2.032 1.328)" fill="#fff" fill-rule="evenodd"/>
  </g>
</svg>
