<svg xmlns="http://www.w3.org/2000/svg" width="21" height="21" viewBox="0 0 21 21">
  <g id="Groupe_9044" data-name="Groupe 9044" transform="translate(-207 -570)">
    <g id="Groupe_4175" data-name="Groupe 4175" transform="translate(5 -88)">
      <g id="Groupe_9043" data-name="Groupe 9043">
        <circle id="Ellipse_15" data-name="Ellipse 15" cx="10.5" cy="10.5" r="10.5" transform="translate(202 658)" fill="#ec1c40"/>
      </g>
      <path id="Icon_ionic-logo-google" data-name="Icon ionic-logo-google" d="M17.21,9.252l-.07-.3H10.674v2.733h3.863a3.866,3.866,0,0,1-3.783,2.9A4.527,4.527,0,0,1,7.71,13.38a4.337,4.337,0,0,1-1.3-3.063,4.473,4.473,0,0,1,1.273-3.06A4.334,4.334,0,0,1,10.71,6.075a3.947,3.947,0,0,1,2.573,1l1.945-1.932a6.886,6.886,0,0,0-4.581-1.762h0A7.088,7.088,0,0,0,5.635,5.418a7.039,7.039,0,0,0-1.978,4.9,6.968,6.968,0,0,0,1.9,4.822,7.259,7.259,0,0,0,5.23,2.119,6.455,6.455,0,0,0,4.7-1.972,6.922,6.922,0,0,0,1.8-4.8A7.979,7.979,0,0,0,17.21,9.252Z" transform="translate(202.21 657.977)" fill="#fff"/>
    </g>
  </g>
</svg>
