<svg xmlns="http://www.w3.org/2000/svg" width="139.523" height="72.038" viewBox="0 0 139.523 72.038">
  <g id="Groupe_7195" data-name="Groupe 7195" transform="translate(0 0)">
    <path id="Tracé_8827" data-name="Tracé 8827" d="M361.765,160.988h12.642a15.366,15.366,0,0,1,7.568,1.816A12.634,12.634,0,0,1,387.069,168a18.335,18.335,0,0,1,0,15.9,12.632,12.632,0,0,1-5.094,5.192,15.354,15.354,0,0,1-7.568,1.817H361.765Zm12.276,22.055a5.687,5.687,0,0,0,4.452-1.859,9.054,9.054,0,0,0,0-10.472,5.684,5.684,0,0,0-4.452-1.86h-3.628v14.191Z" transform="translate(-249.359 -160.702)" fill="#fff"/>
    <path id="Tracé_8828" data-name="Tracé 8828" d="M356.466,160.988v29.921h-7.374l-10.111-13.593v13.593H330.24V160.988h7.373l10.111,13.592V160.988Z" transform="translate(-246.932 -160.702)" fill="#fff"/>
    <path id="Tracé_8829" data-name="Tracé 8829" d="M313.791,190.909q-6.967,0-10.861-3.636t-3.9-10.2V160.988h10.213v15.8a7.4,7.4,0,0,0,1.19,4.68,4.775,4.775,0,0,0,6.88,0,7.393,7.393,0,0,0,1.191-4.68v-15.8h10.04v16.089q0,6.561-3.894,10.2t-10.863,3.636" transform="translate(-247.473 -160.702)" fill="#fff"/>
    <path id="Tracé_8830" data-name="Tracé 8830" d="M277.137,190.552a11.938,11.938,0,0,1-6.684-1.94,13.169,13.169,0,0,1-4.643-5.386,18.849,18.849,0,0,1,0-15.556,13.169,13.169,0,0,1,4.643-5.386,12.488,12.488,0,0,1,13.369,0,13.17,13.17,0,0,1,4.643,5.386,18.858,18.858,0,0,1,0,15.556,13.17,13.17,0,0,1-4.643,5.386,11.936,11.936,0,0,1-6.684,1.94m0-7.882a4.227,4.227,0,0,0,2.618-.888,6.023,6.023,0,0,0,1.861-2.517,10.881,10.881,0,0,0,0-7.634,6.024,6.024,0,0,0-1.861-2.517,4.3,4.3,0,0,0-5.236,0,6.015,6.015,0,0,0-1.86,2.517,10.88,10.88,0,0,0,0,7.634,6.015,6.015,0,0,0,1.86,2.517A4.228,4.228,0,0,0,277.137,182.671Z" transform="translate(-240.996 -160.345)" fill="#fff"/>
    <path id="Tracé_8831" data-name="Tracé 8831" d="M249.551,168.6v5.129h11.5v7.609h-11.5v9.575h-9.294V160.988h20.794V168.6Z" transform="translate(-240.257 -160.702)" fill="#fff"/>
    <path id="Tracé_8832" data-name="Tracé 8832" d="M335.074,221.454v9.451H304.692V193.74h30.382v9.45H317.08v4.354h15.8v9.025h-15.8v4.884Z" transform="matrix(1, -0.017, 0.017, 1, -251.133, -154.253)" fill="#fff"/>
    <path id="Tracé_8833" data-name="Tracé 8833" d="M280.082,230.944l-.127-16.955L270.269,227.6h-6.627l-9.686-13.021v16.37h-13.7v-37.2h12.362l14.528,19.824,14.146-19.824h12.362l.127,37.2Z" transform="translate(-240.257 -159.907)" fill="#fff"/>
    <path id="Tracé_8834" data-name="Tracé 8834" d="M359.6,216.622a7.913,7.913,0,0,1,1.038-4.211,21.884,21.884,0,0,1,2.966-3.676,19.641,19.641,0,0,0,1.8-2.092,2.914,2.914,0,0,0,.569-1.717,2.149,2.149,0,0,0-.94-1.851,3.977,3.977,0,0,0-2.373-.671,4.994,4.994,0,0,0-2.965.993,6.769,6.769,0,0,0-2.175,2.655l-8.8-4.775a14.768,14.768,0,0,1,5.857-6.385,18.422,18.422,0,0,1,9.564-2.307,16.465,16.465,0,0,1,9.785,2.683,8.755,8.755,0,0,1,3.756,7.565,10.033,10.033,0,0,1-.716,3.943,10.852,10.852,0,0,1-1.7,2.844,29.452,29.452,0,0,1-2.521,2.549,22.063,22.063,0,0,0-2.273,2.414,3.287,3.287,0,0,0-.692,2.039Zm5.09,14.915a6.334,6.334,0,0,1-6.524-6.438A6.089,6.089,0,0,1,360,220.565a7.032,7.032,0,0,1,9.39,0,6.09,6.09,0,0,1,1.829,4.533,6.334,6.334,0,0,1-6.524,6.438Z" transform="translate(-251.194 -159.499)" fill="#fff"/>
  </g>
</svg>
