<svg xmlns="http://www.w3.org/2000/svg" width="67.176" height="37.594" viewBox="0 0 67.176 37.594">
  <g id="Groupe_7195" data-name="Groupe 7195" transform="translate(-515.257 -238.345)">
    <path id="Tracé_8827" data-name="Tracé 8827" d="M361.765,160.988h6.153a8.5,8.5,0,0,1,3.683.758,5.766,5.766,0,0,1,2.479,2.167,6.675,6.675,0,0,1,0,6.635,5.765,5.765,0,0,1-2.479,2.167,8.489,8.489,0,0,1-3.683.758h-6.153Zm5.975,9.2a3.006,3.006,0,0,0,2.167-.776,3.346,3.346,0,0,0,0-4.369,3,3,0,0,0-2.167-.776h-1.766v5.921Z" transform="translate(207.469 77.643)" fill="#fff"/>
    <path id="Tracé_8828" data-name="Tracé 8828" d="M342.546,160.988v12.485h-3.46l-4.744-5.672v5.672h-4.1V160.988h3.46l4.744,5.671v-5.671Z" transform="translate(224.99 77.643)" fill="#fff"/>
    <path id="Tracé_8829" data-name="Tracé 8829" d="M305.115,173.758a6.173,6.173,0,0,1-4.476-1.552,5.771,5.771,0,0,1-1.605-4.352v-6.866h4.209v6.742a3.243,3.243,0,0,0,.49,2,1.921,1.921,0,0,0,2.836,0,3.239,3.239,0,0,0,.491-2v-6.742H311.2v6.866a5.771,5.771,0,0,1-1.6,4.352,6.175,6.175,0,0,1-4.477,1.552" transform="translate(242.333 77.643)" fill="#fff"/>
    <path id="Tracé_8830" data-name="Tracé 8830" d="M271.175,173.4a7.7,7.7,0,0,1-3.62-.838,6.4,6.4,0,0,1,0-11.379,8.238,8.238,0,0,1,7.241,0,6.4,6.4,0,0,1,0,11.379,7.7,7.7,0,0,1-3.62.838m0-3.406a2.686,2.686,0,0,0,1.418-.384,2.746,2.746,0,0,0,1.008-1.088,3.82,3.82,0,0,0,0-3.3,2.746,2.746,0,0,0-1.008-1.088,2.811,2.811,0,0,0-2.836,0,2.742,2.742,0,0,0-1.007,1.088,3.82,3.82,0,0,0,0,3.3,2.742,2.742,0,0,0,1.007,1.088A2.687,2.687,0,0,0,271.175,169.994Z" transform="translate(261.732 78)" fill="#fff"/>
    <path id="Tracé_8831" data-name="Tracé 8831" d="M244.466,164.162v2.14h5.208v3.175h-5.208v4h-4.209V160.988h9.417v3.174Z" transform="translate(275 77.643)" fill="#fff"/>
    <path id="Tracé_8832" data-name="Tracé 8832" d="M322.932,210.473v5.706h-18.24V193.74h18.24v5.706h-10.8v2.629h9.488v5.449h-9.488v2.949Z" transform="translate(239.188 59.44)" fill="#fff"/>
    <path id="Tracé_8833" data-name="Tracé 8833" d="M260.291,216.179l-.064-10.226-4.873,8.206h-3.334l-4.873-7.853v9.873h-6.892V193.74h6.219l7.309,11.956L260.9,193.74h6.219l.064,22.439Z" transform="translate(275 59.44)" fill="#fff"/>
    <path id="Tracé_8834" data-name="Tracé 8834" d="M355.781,206.946a4.438,4.438,0,0,1,.673-2.516,13.329,13.329,0,0,1,1.923-2.2,12.056,12.056,0,0,0,1.17-1.25,1.651,1.651,0,0,0,.369-1.026,1.256,1.256,0,0,0-.609-1.106,2.742,2.742,0,0,0-1.539-.4,3.426,3.426,0,0,0-1.923.593,4.136,4.136,0,0,0-1.41,1.586l-5.706-2.853a9.143,9.143,0,0,1,3.8-3.815,12.769,12.769,0,0,1,6.2-1.378,11.362,11.362,0,0,1,6.347,1.6,5.108,5.108,0,0,1,2.436,4.52,5.58,5.58,0,0,1-.465,2.356,6.406,6.406,0,0,1-1.106,1.7,18.4,18.4,0,0,1-1.635,1.523,13.7,13.7,0,0,0-1.474,1.442,1.866,1.866,0,0,0-.449,1.218Zm3.3,8.911a4.252,4.252,0,0,1-3.045-1.122,3.61,3.61,0,0,1-1.186-2.724,3.5,3.5,0,0,1,1.186-2.708,4.855,4.855,0,0,1,6.09,0,3.5,3.5,0,0,1,1.186,2.708,3.61,3.61,0,0,1-1.186,2.724A4.251,4.251,0,0,1,359.083,215.857Z" transform="translate(214.715 60.082)" fill="#fff"/>
  </g>
</svg>
