<svg xmlns="http://www.w3.org/2000/svg" width="28.002" height="28" viewBox="0 0 28.002 28">
  <path id="Tracé_804" data-name="Tracé 804" d="M517.854,74.53A13.995,13.995,0,1,0,498.046,94.3a.252.252,0,0,0,.019.027c.08.079.168.144.251.219.225.2.45.407.687.6.127.1.258.2.389.293.224.167.448.333.68.487.159.1.323.2.487.3.215.13.43.261.654.379.188.1.382.186.572.277.211.1.417.2.632.29s.431.16.65.238.406.15.614.214c.235.071.478.126.717.186.2.048.394.1.6.145.276.055.556.089.836.127.173.024.341.059.516.075.458.046.92.07,1.385.07s.929-.024,1.387-.07c.174-.017.343-.051.516-.075.28-.038.56-.073.836-.127.2-.041.4-.1.6-.145.239-.06.481-.114.717-.186.209-.064.411-.141.614-.214s.436-.15.649-.238.422-.191.632-.29c.192-.092.385-.177.574-.277.223-.118.438-.249.654-.379.163-.1.327-.191.486-.3.234-.154.458-.321.682-.487.13-.1.262-.191.389-.293.237-.19.462-.392.687-.6.081-.075.17-.14.251-.219a.261.261,0,0,0,.019-.027,13.978,13.978,0,0,0,.424-19.765Zm-10.117-2.236a11.928,11.928,0,1,1-11.925,11.928A11.927,11.927,0,0,1,507.738,72.294Z" transform="translate(-493.738 -70.222)" fill="#fff" fill-rule="evenodd"/>
</svg>
