<svg xmlns="http://www.w3.org/2000/svg" width="26.492" height="26.492" viewBox="0 0 26.492 26.492">
  <g id="Groupe_9045" data-name="Groupe 9045" transform="translate(-35 -405)">
    <g id="Icon_ionic-ios-add-circle-outline" data-name="Icon ionic-ios-add-circle-outline" transform="translate(35 405)">
      <path id="Tracé_8898" data-name="Tracé 8898" d="M25.568,17.429H19.874V11.735a1.223,1.223,0,1,0-2.446,0v5.694H11.735a1.171,1.171,0,0,0-1.223,1.223,1.184,1.184,0,0,0,1.223,1.223h5.694v5.694a1.184,1.184,0,0,0,1.223,1.223,1.217,1.217,0,0,0,1.223-1.223V19.874h5.694a1.223,1.223,0,0,0,0-2.446Z" transform="translate(-5.405 -5.405)" fill="#f5f5f5"/>
      <path id="Tracé_8899" data-name="Tracé 8899" d="M16.621,5.158A11.458,11.458,0,1,1,8.514,8.514a11.387,11.387,0,0,1,8.107-3.356m0-1.783A13.246,13.246,0,1,0,29.867,16.621,13.244,13.244,0,0,0,16.621,3.375Z" transform="translate(-3.375 -3.375)" fill="#f5f5f5"/>
    </g>
  </g>
</svg>
