<svg xmlns="http://www.w3.org/2000/svg" xmlns:xlink="http://www.w3.org/1999/xlink" width="32.412" height="32.412" viewBox="0 0 32.412 32.412">
  <defs>
    <clipPath id="clip-path">
      <rect id="Rectangle_5053" data-name="Rectangle 5053" width="32.412" height="32.412" fill="none"/>
    </clipPath>
  </defs>
  <g id="Groupe_7114" data-name="Groupe 7114" transform="translate(0 0)">
    <g id="Groupe_7113" data-name="Groupe 7113" transform="translate(0 0)" clip-path="url(#clip-path)">
      <path id="Tracé_9014" data-name="Tracé 9014" d="M29.059,31.623V29.059h2.563ZM16.678,12.95v2.19L20.1,13.431v-4.9L16.678,10.64ZM32.412,0V27.942H28.5a.559.559,0,0,0-.559.559v3.911H0V0ZM20.241,18.981v2.548h.727V18.981h1v-.593H19.236v.593ZM10.98,14.116l5.128,2.563,5.128-2.563V7.165L16.108,4.6,10.98,7.165Zm3.452,9.354a.559.559,0,0,0,.558.56h2.236a.559.559,0,0,0,0-1.118H14.99a.559.559,0,0,0-.558.558m.032-1.887a1.825,1.825,0,0,0,.879-.211,1.6,1.6,0,0,0,0-2.827,1.943,1.943,0,0,0-1.761,0,1.565,1.565,0,0,0-.615.581,1.672,1.672,0,0,0,0,1.665,1.565,1.565,0,0,0,.615.581,1.839,1.839,0,0,0,.882.211m4.028-.13a1.013,1.013,0,0,0,.451-.353.854.854,0,0,0,.15-.491.724.724,0,0,0-.164-.5.981.981,0,0,0-.392-.269,5.37,5.37,0,0,0-.588-.171,2.587,2.587,0,0,1-.513-.154.255.255,0,0,1-.169-.24.3.3,0,0,1,.146-.26.812.812,0,0,1,.451-.1,1.757,1.757,0,0,1,.87.248l.225-.552a1.734,1.734,0,0,0-.5-.206,2.41,2.41,0,0,0-.588-.073,1.817,1.817,0,0,0-.729.131,1,1,0,0,0-.446.352.871.871,0,0,0-.148.5.738.738,0,0,0,.164.5.943.943,0,0,0,.392.273,4.776,4.776,0,0,0,.588.171c.155.036.279.069.37.1a.651.651,0,0,1,.224.119.234.234,0,0,1,.088.186.28.28,0,0,1-.148.245.9.9,0,0,1-.458.092,1.826,1.826,0,0,1-.556-.09,1.669,1.669,0,0,1-.48-.238l-.247.547a1.681,1.681,0,0,0,.559.263,2.577,2.577,0,0,0,.72.1,1.831,1.831,0,0,0,.731-.13m-8.2.076h2.3v-.592H11.014V18.388h-.726Zm7.5,5.295a.558.558,0,0,0-.558-.559H14.99a.558.558,0,0,0,0,1.117h2.236a.558.558,0,0,0,.558-.558m5.589-1.677a.559.559,0,0,0-.559-.559H9.4a.559.559,0,0,0,0,1.119H22.814a.56.56,0,0,0,.559-.56M12.12,13.431l3.418,1.709v-4.5L12.12,8.531Zm2.569-4.617-.005,0,1.424.854,3.418-2.107-1.041-.5-1.818-.908-.559-.3L12.69,7.563l.758.475Zm.629,10.624a.919.919,0,0,0-.352-.356,1.05,1.05,0,0,0-1,0,.919.919,0,0,0-.352.356,1.122,1.122,0,0,0,0,1.041.919.919,0,0,0,.352.356,1.05,1.05,0,0,0,1,0,.919.919,0,0,0,.352-.356,1.122,1.122,0,0,0,0-1.041" transform="translate(0 0)" fill="#fefefe"/>
    </g>
  </g>
</svg>
