<svg xmlns="http://www.w3.org/2000/svg" xmlns:xlink="http://www.w3.org/1999/xlink" width="32" height="26.862" viewBox="0 0 32 26.862">
  <defs>
    <clipPath id="clip-path">
      <rect id="Rectangle_4988" data-name="Rectangle 4988" width="32" height="26.862" fill="none"/>
    </clipPath>
  </defs>
  <g id="Groupe_6990" data-name="Groupe 6990" transform="translate(0 0)">
    <g id="Groupe_6989" data-name="Groupe 6989" transform="translate(0 0)" clip-path="url(#clip-path)">
      <path id="Tracé_8974" data-name="Tracé 8974" d="M10.605,11.013c-.047-.018-.092-.035-.14-.049.047.014.094.031.14.049" transform="translate(2.168 2.271)" fill="#fff"/>
      <path id="Tracé_8975" data-name="Tracé 8975" d="M10.916,11.176q-.063-.04-.13-.076c.043.024.088.049.13.076" transform="translate(2.234 2.299)" fill="#fff"/>
      <path id="Tracé_8976" data-name="Tracé 8976" d="M11.081,11.312c.034.029.07.057.1.089-.031-.033-.068-.06-.1-.089" transform="translate(2.295 2.343)" fill="#fff"/>
      <path id="Tracé_8977" data-name="Tracé 8977" d="M29.717,5.452a2.02,2.02,0,0,0-2.756.739l-1.789,3.1V.48A.479.479,0,0,0,24.693,0H6.637a.479.479,0,0,0-.48.479V10.971h.817A1.934,1.934,0,0,1,8.906,12.9v1.065l.914-.547a1.907,1.907,0,0,1,1.249-.244c-.031,0-.06-.017-.093-.019h9.539a.48.48,0,0,1,0,.961H12.487l-.018-.031,0-.006,0,.007,1.242,2.076a1.94,1.94,0,0,1-.33,2.389c.007-.007.017-.011.023-.018H15.04a.48.48,0,1,1,0,.961H11.905l1.14-.682-1.159.694,1.159.693a1.939,1.939,0,0,1,.666,2.648l-1.038,1.736H24.693a.48.48,0,0,0,.479-.48V17.357l5.282-9.15a2.02,2.02,0,0,0-.738-2.755m-18.9-.362h9.7a.48.48,0,1,1,0,.96h-9.7a.48.48,0,1,1,0-.96m0,2.69h9.7a.48.48,0,1,1,0,.96h-9.7a.48.48,0,1,1,0-.96m3.2,3.648h-3.2a.48.48,0,1,1,0-.96h3.2a.48.48,0,1,1,0,.96m6.5,0H16.949a.48.48,0,0,1,0-.96h3.566a.48.48,0,1,1,0,.96M18.45,16.806h-3a.479.479,0,1,1,0-.958h3a.479.479,0,1,1,0,.958m1.09,6.271.212-1.964,1.383.8Zm2.3-1.869-1.83-1.056L27.038,7.979l1.83,1.056ZM29.623,7.727l-.275.477L27.518,7.147l.274-.477a1.056,1.056,0,0,1,1.83,1.056" transform="translate(1.275 0)" fill="#fff"/>
      <path id="Tracé_8978" data-name="Tracé 8978" d="M10.827,11.12A2.2,2.2,0,0,0,10.58,11a2.2,2.2,0,0,1,.247.115" transform="translate(2.192 2.279)" fill="#fff"/>
      <path id="Tracé_8979" data-name="Tracé 8979" d="M11.12,11.343a1.981,1.981,0,0,0-.226-.179,1.981,1.981,0,0,1,.226.179" transform="translate(2.257 2.312)" fill="#fff"/>
      <path id="Tracé_8980" data-name="Tracé 8980" d="M10.514,10.974a2.128,2.128,0,0,0-.287-.059,2.128,2.128,0,0,1,.287.059" transform="translate(2.118 2.26)" fill="#fff"/>
      <path id="Tracé_8981" data-name="Tracé 8981" d="M11.165,11.386a1.94,1.94,0,0,1,.262.336,1.94,1.94,0,0,0-.262-.336" transform="translate(2.313 2.358)" fill="#fff"/>
      <path id="Tracé_8982" data-name="Tracé 8982" d="M12.2,15.369a1.943,1.943,0,0,1-.337.261,1.943,1.943,0,0,0,.337-.261" transform="translate(2.457 3.183)" fill="#fff"/>
      <path id="Tracé_8983" data-name="Tracé 8983" d="M6.743,13.979a1.266,1.266,0,0,0-1.19.921,1.657,1.657,0,0,0-.037.634A2.118,2.118,0,0,0,6.579,16.96a1.248,1.248,0,0,0,.24.135l.024.981c0,.13.025.17.025.326-.314.074-1,.56-1,1.08s.728,1.055,1.055,1.13c0,.337.025.643.025,1.006s-.078.8.251.8c.355,0,1.206-.5,1.206-1.155a1.011,1.011,0,0,0-.5-.729l-.031.6c0,.06.263.4-.421.855,0-.919.051-1.762.051-2.664a2.316,2.316,0,0,0-.6.3v.326c-.113-.059-.4-.279-.4-.375,0-.285.209-.356.5-.5l.657-.3c.412-.169.927-.387.927-.958A1.055,1.055,0,0,0,8,16.971c0,.775-.035.884-.453,1.1,0-.484.027-.881.025-1.356L7.6,15.713c0-.152.027-.183.027-.326a8.386,8.386,0,0,0-.855-.1c0,.2.025.307.027.477s0,.336,0,.5a1.329,1.329,0,0,1-.378-.351c-.179-.25-.31-.682-.042-.925a.647.647,0,0,1,.406-.147c.3-.034,1.479.421,1.231-.3a.855.855,0,0,0-.362-.392l.024-1.306a.484.484,0,1,0-.958.128c.013.155,0,.342,0,.5,0,.2.025.328.025.5m-.914-3.912H8.25A.753.753,0,0,1,9,10.818v3.147l2.7-1.615a.754.754,0,0,1,1.031.258l1.242,2.077a.754.754,0,0,1-.26,1.031l-2.854,1.707,2.854,1.706a.752.752,0,0,1,.26,1.03l-1.242,2.079A.754.754,0,0,1,11.7,22.5L9,20.881v3.146a.754.754,0,0,1-.752.752H5.829a.753.753,0,0,1-.751-.752V20.881L2.378,22.5a.753.753,0,0,1-1.03-.258L.105,20.159a.754.754,0,0,1,.26-1.03l2.854-1.706L.365,15.716a.756.756,0,0,1-.26-1.031l1.243-2.077a.753.753,0,0,1,1.03-.258l2.7,1.615V10.818a.753.753,0,0,1,.751-.751" transform="translate(0 2.085)" fill="#fff" fill-rule="evenodd"/>
    </g>
  </g>
</svg>
