<svg id="Groupe_6984" data-name="Groupe 6984" xmlns="http://www.w3.org/2000/svg" xmlns:xlink="http://www.w3.org/1999/xlink" width="30.627" height="32" viewBox="0 0 30.627 32">
  <defs>
    <clipPath id="clip-path">
      <rect id="Rectangle_4985" data-name="Rectangle 4985" width="30.627" height="32" fill="none"/>
    </clipPath>
  </defs>
  <g id="Groupe_6983" data-name="Groupe 6983" clip-path="url(#clip-path)">
    <path id="Tracé_8969" data-name="Tracé 8969" d="M14.669,8.511a2.756,2.756,0,0,0-2.589,2A3.578,3.578,0,0,0,12,11.893a4.6,4.6,0,0,0,2.311,3.1,2.809,2.809,0,0,0,.523.3l.054,2.133c.007.285.056.373.056.708-.685.159-2.186,1.22-2.186,2.351s1.583,2.292,2.3,2.459c0,.731.054,1.4.054,2.186s-.169,1.75.546,1.75c.771,0,2.624-1.1,2.624-2.515a2.19,2.19,0,0,0-1.092-1.586l-.067,1.31c0,.132.571.863-.916,1.859,0-2,.109-3.832.109-5.793A4.954,4.954,0,0,0,15,20.811v.71c-.247-.13-.875-.608-.875-.82,0-.616.454-.774,1.094-1.094l1.428-.648c.893-.366,2.014-.842,2.014-2.083A2.3,2.3,0,0,0,17.4,15.016c0,1.687-.076,1.925-.983,2.4,0-1.052.057-1.917.054-2.95l.053-2.189c0-.33.057-.4.057-.708a18.224,18.224,0,0,0-1.859-.219c0,.429.056.67.057,1.038s0,.73,0,1.1a2.8,2.8,0,0,1-.82-.764c-.39-.545-.678-1.481-.095-2.01a1.426,1.426,0,0,1,.885-.323c.651-.073,3.216.916,2.677-.642a1.845,1.845,0,0,0-.787-.853l.054-2.843a1.053,1.053,0,1,0-2.087.28c.03.337.01.744.01,1.088,0,.442.054.714.054,1.092M12.68,0h5.266A1.639,1.639,0,0,1,19.58,1.634V8.477l5.874-3.512a1.636,1.636,0,0,1,2.239.563l2.7,4.519a1.639,1.639,0,0,1-.563,2.241L23.626,16l6.208,3.712a1.639,1.639,0,0,1,.563,2.241l-2.7,4.519a1.636,1.636,0,0,1-2.239.563L19.58,23.523v6.844A1.638,1.638,0,0,1,17.946,32H12.68a1.638,1.638,0,0,1-1.633-1.633V23.523L5.174,27.035a1.638,1.638,0,0,1-2.241-.563l-2.7-4.519a1.638,1.638,0,0,1,.563-2.241L7,16,.794,12.288a1.638,1.638,0,0,1-.563-2.241l2.7-4.519a1.636,1.636,0,0,1,2.239-.563l5.874,3.512V1.634A1.639,1.639,0,0,1,12.68,0" transform="translate(0)" fill="#fff" fill-rule="evenodd"/>
  </g>
</svg>
