<?xml version="1.0" standalone="no"?>
<!DOCTYPE svg PUBLIC "-//W3C//DTD SVG 20010904//EN"
 "http://www.w3.org/TR/2001/REC-SVG-20010904/DTD/svg10.dtd">
<svg version="1.0" xmlns="http://www.w3.org/2000/svg"
 width="204.000000pt" height="216.000000pt" viewBox="0 0 204.000000 216.000000"
 preserveAspectRatio="xMidYMid meet">
<metadata>
Created by potrace 1.16, written by Peter Selinger 2001-2019
</metadata>
<g transform="translate(0.000000,216.000000) scale(0.100000,-0.100000)"
fill="#000000" stroke="none">
<path d="M762 2138 c-38 -41 -42 -72 -42 -299 0 -120 -2 -219 -4 -219 -2 0
-91 52 -196 115 -209 125 -235 133 -297 96 -19 -12 -46 -47 -69 -88 -21 -37
-64 -113 -96 -167 -51 -87 -58 -107 -58 -152 0 -35 6 -59 18 -73 14 -17 384
-252 417 -264 14 -6 21 -1 -195 -132 -107 -64 -205 -128 -217 -142 -18 -19
-23 -36 -23 -77 0 -46 7 -65 58 -152 32 -54 75 -128 95 -164 45 -83 66 -101
121 -107 50 -6 60 -1 306 147 l135 81 5 -233 c5 -235 7 -245 43 -286 20 -22
24 -22 254 -22 142 0 242 4 254 10 44 24 49 55 49 300 0 126 2 230 5 230 2 0
91 -52 197 -115 276 -165 275 -165 421 81 96 162 97 164 97 229 0 49 -4 69
-18 83 -9 9 -106 71 -215 136 -108 65 -197 122 -197 126 0 4 66 47 148 95 81
49 177 108 215 132 l67 43 0 70 0 71 -92 155 c-104 176 -130 204 -191 204 -35
0 -71 -18 -233 -115 -106 -63 -195 -115 -198 -115 -3 0 -6 101 -6 224 0 124
-4 236 -9 249 -6 14 -20 35 -32 46 -22 20 -33 21 -259 21 -232 0 -237 0 -258
-22z m316 -354 c20 -14 22 -23 22 -126 0 -106 1 -111 25 -130 14 -11 25 -30
25 -44 l0 -24 -111 2 c-106 3 -111 2 -130 -21 -34 -42 -17 -126 37 -176 43
-40 54 -33 54 33 0 69 23 102 58 83 32 -17 35 -42 31 -230 -4 -189 -1 -199 46
-159 20 18 28 36 33 78 l7 54 28 -33 c34 -40 37 -96 6 -134 -18 -24 -47 -40
-200 -111 -78 -37 -98 -79 -57 -123 31 -33 58 -30 58 6 0 33 22 61 49 61 15 0
16 -16 13 -195 -5 -218 -2 -227 57 -160 35 40 39 73 15 130 -19 46 -12 56 20
26 41 -39 50 -74 31 -116 -32 -66 -145 -137 -166 -104 -5 8 -9 67 -9 132 0
116 0 118 -25 127 -36 14 -111 85 -125 119 -10 24 -9 36 6 66 17 36 77 88 115
100 21 7 24 39 13 156 -7 65 -7 66 -54 98 -86 59 -139 143 -139 221 -1 80 66
165 140 176 l39 7 0 98 c0 90 2 99 22 113 12 9 27 16 33 16 6 0 21 -7 33 -16z"/>
</g>
</svg>
