<svg id="Groupe_7415" data-name="Groupe 7415" xmlns="http://www.w3.org/2000/svg" width="60.96" height="81.045" viewBox="0 0 60.96 81.045">
  <path id="Tracé_7720" data-name="Tracé 7720" d="M130.484,55.269h-.1a5.415,5.415,0,0,0-3.563,1.3,5.7,5.7,0,0,0-5.251-3.747,5.5,5.5,0,0,0-3.841,1.619,5.6,5.6,0,0,0-4.962-3.084h-.1a4.927,4.927,0,0,0-3.085.94V39.05a5.685,5.685,0,1,0-11.355,0L98.2,65.426l-1.353-1.643a7.688,7.688,0,0,0-5.431-2.852,7.569,7.569,0,0,0-5.665,2L84.44,64.02a1.251,1.251,0,0,0-.312,1.541L96.873,90.053a13.222,13.222,0,0,0,11.649,7.31h14.294c7.335,0,13.308-6.358,13.316-14.166,0-3.456.007-6.037.009-8.13.007-5.623.01-7.692,0-13.884A5.793,5.793,0,0,0,130.484,55.269Zm3.154,19.793c0,2.093-.006,4.677-.009,8.134-.006,6.429-4.856,11.664-10.812,11.664H108.522A10.726,10.726,0,0,1,99.094,88.9L86.815,65.3l.554-.461.048-.042a5.085,5.085,0,0,1,3.82-1.372,5.2,5.2,0,0,1,3.669,1.943l3.567,4.342a1.252,1.252,0,0,0,2.219-.794l.021-29.873a3.193,3.193,0,1,1,6.363,0V57.06c0,.063,0,.127,0,.191,0,.029,0,.058,0,.086v7.7a1.252,1.252,0,1,0,2.5,0V57.1a3.142,3.142,0,0,1,3.085-3.242h.1A3.318,3.318,0,0,1,116,57.253V64.3a1.252,1.252,0,0,0,2.5,0V58.77a3.146,3.146,0,1,1,6.259,0v5.216a1.252,1.252,0,0,0,2.5,0V61.162a3.233,3.233,0,0,1,3.124-3.389h.1a3.288,3.288,0,0,1,3.15,3.416C133.647,67.376,133.645,69.442,133.638,75.062Z" transform="translate(-75.187 -16.319)" fill="#ec1c40"/>
  <path id="Tracé_7721" data-name="Tracé 7721" d="M146.234,10.492a7.989,7.989,0,0,1,15.977,0,1.252,1.252,0,1,0,2.5,0,10.492,10.492,0,0,0-20.985,0,1.252,1.252,0,1,0,2.5,0Z" transform="translate(-125.562 11.577)" fill="#ec1c40"/>
  <path id="Tracé_7722" data-name="Tracé 7722" d="M37.048-45.469l-2.17,2.17V-69.451l2.17,2.17a1.251,1.251,0,0,0,1.77,0,1.251,1.251,0,0,0,0-1.77l-4.067-4.067a1.251,1.251,0,0,0-1.125-.7l-.048,0a1.248,1.248,0,0,0-.936.364l-4.4,4.406a1.251,1.251,0,0,0,0,1.77,1.251,1.251,0,0,0,1.77,0l2.169-2.169V-43.3l-2.169-2.17a1.252,1.252,0,0,0-1.77,0,1.251,1.251,0,0,0,0,1.77L32.3-39.631a1.251,1.251,0,0,0,1.125.7l.048,0a1.248,1.248,0,0,0,.936-.364l4.4-4.406a1.252,1.252,0,0,0,0-1.77A1.252,1.252,0,0,0,37.048-45.469Z" transform="translate(-27.871 73.824)" fill="#ec1c40"/>
</svg>
