<svg xmlns="http://www.w3.org/2000/svg" xmlns:xlink="http://www.w3.org/1999/xlink" width="31.463" height="23.203" viewBox="0 0 31.463 23.203">
  <defs>
    <clipPath id="clip-path">
      <rect id="Rectangle_4981" data-name="Rectangle 4981" width="31.463" height="23.203" fill="none"/>
    </clipPath>
  </defs>
  <g id="Groupe_6976" data-name="Groupe 6976" transform="translate(0 0)">
    <g id="Groupe_6975" data-name="Groupe 6975" transform="translate(0 0)" clip-path="url(#clip-path)">
      <path id="Tracé_8954" data-name="Tracé 8954" d="M9.4,6.841A2.078,2.078,0,1,0,7.322,8.918,2.078,2.078,0,0,0,9.4,6.841" transform="translate(2.077 1.886)" fill="#fff"/>
      <path id="Tracé_8955" data-name="Tracé 8955" d="M28.185,0H3.277A3.28,3.28,0,0,0,0,3.277V19.928A3.28,3.28,0,0,0,3.277,23.2H28.185a3.281,3.281,0,0,0,3.277-3.277V3.277A3.281,3.281,0,0,0,28.185,0M13.948,17.87H4.85a.657.657,0,0,1-.656-.653,5.43,5.43,0,0,1,1.522-3.848A5.063,5.063,0,0,1,8.359,11.93a3.388,3.388,0,1,1,2.082,0,5.068,5.068,0,0,1,2.642,1.438,5.435,5.435,0,0,1,1.52,3.848.655.655,0,0,1-.655.653m12.624-1.419H18.936a.655.655,0,1,1,0-1.31h7.636a.655.655,0,1,1,0,1.31m0-4.193H18.936a.656.656,0,0,1,0-1.312h7.636a.656.656,0,0,1,0,1.312m0-4.2H18.936a.655.655,0,1,1,0-1.31h7.636a.655.655,0,1,1,0,1.31" transform="translate(0 -0.001)" fill="#fff"/>
      <path id="Tracé_8956" data-name="Tracé 8956" d="M7.823,9.411a3.861,3.861,0,0,0-2.746,1.148,4.01,4.01,0,0,0-1.1,2.274h7.694a4.02,4.02,0,0,0-1.1-2.274A3.859,3.859,0,0,0,7.823,9.411" transform="translate(1.576 3.728)" fill="#fff"/>
    </g>
  </g>
</svg>
