<svg xmlns="http://www.w3.org/2000/svg" xmlns:xlink="http://www.w3.org/1999/xlink" width="32" height="23.599" viewBox="0 0 32 23.599">
  <defs>
    <clipPath id="clip-path">
      <rect id="Rectangle_4986" data-name="Rectangle 4986" width="32" height="23.599" fill="none"/>
    </clipPath>
  </defs>
  <g id="Groupe_6986" data-name="Groupe 6986" transform="translate(0 0)">
    <g id="Groupe_6985" data-name="Groupe 6985" transform="translate(0 0)" clip-path="url(#clip-path)">
      <path id="Tracé_8970" data-name="Tracé 8970" d="M7.4,11.095l.584-.266c.364-.149.821-.344.821-.849a.939.939,0,0,0-.513-.758c0,.687-.031.784-.4.981,0-.43.024-.784.023-1.206l.021-.892c0-.135.024-.162.024-.29a7.374,7.374,0,0,0-.76-.089c0,.175.024.274.024.423V8.6a1.14,1.14,0,0,1-.337-.312c-.159-.222-.275-.6-.038-.819a.581.581,0,0,1,.362-.131c.266-.031,1.312.373,1.092-.263a.746.746,0,0,0-.322-.348L8,5.564a.43.43,0,1,0-.852.115c.013.136,0,.3,0,.443,0,.18.023.291.023.446a1.124,1.124,0,0,0-1.056.817,1.458,1.458,0,0,0-.033.562,1.873,1.873,0,0,0,.943,1.265,1.132,1.132,0,0,0,.213.121l.021.87c0,.116.023.152.023.29-.278.065-.892.5-.892.959s.646.936.937,1c0,.3.021.569.021.892s-.068.714.223.714c.315,0,1.071-.449,1.071-1.027a.9.9,0,0,0-.446-.648l-.027.535c0,.054.233.352-.373.758,0-.814.044-1.562.044-2.363a2.034,2.034,0,0,0-.535.268v.29c-.1-.054-.356-.249-.356-.337,0-.25.185-.314.446-.444" transform="translate(2.55 2.176)" fill="#fff" fill-rule="evenodd"/>
      <path id="Tracé_8971" data-name="Tracé 8971" d="M28.666,0H3.333A3.334,3.334,0,0,0,0,3.334V20.266A3.335,3.335,0,0,0,3.333,23.6H28.666A3.336,3.336,0,0,0,32,20.266V3.334A3.335,3.335,0,0,0,28.666,0M15.908,13.315a.666.666,0,0,1,.23.913l-1.1,1.845a.669.669,0,0,1-.914.23l-2.4-1.434v2.793a.668.668,0,0,1-.667.666H8.912a.668.668,0,0,1-.667-.666V14.869L5.848,16.3a.667.667,0,0,1-.913-.23l-1.1-1.845a.667.667,0,0,1,.23-.913L6.593,11.8,4.061,10.285a.669.669,0,0,1-.23-.914l1.1-1.843a.666.666,0,0,1,.913-.23l2.4,1.433V5.938a.669.669,0,0,1,.667-.667h2.147a.669.669,0,0,1,.667.667V8.73l2.4-1.433a.668.668,0,0,1,.914.23l1.1,1.843a.667.667,0,0,1-.23.914L13.377,11.8Zm11.117,3.418H19.26a.667.667,0,1,1,0-1.333h7.766a.667.667,0,0,1,0,1.333m0-4.267H19.26a.667.667,0,1,1,0-1.333h7.766a.667.667,0,0,1,0,1.333m0-4.266H19.26a.667.667,0,1,1,0-1.333h7.766a.667.667,0,0,1,0,1.333" transform="translate(0 -0.001)" fill="#fff" fill-rule="evenodd"/>
    </g>
  </g>
</svg>
