<svg id="Groupe_7416" data-name="Groupe 7416" xmlns="http://www.w3.org/2000/svg" width="72.499" height="89.565" viewBox="0 0 72.499 89.565">
  <path id="Tracé_7723" data-name="Tracé 7723" d="M992.53,558.893l-.069-.069a5.417,5.417,0,0,0-3.438-1.6,5.7,5.7,0,0,0-1.064-6.363,5.5,5.5,0,0,0-3.861-1.571,5.6,5.6,0,0,0-1.328-5.689l-.074-.074a4.926,4.926,0,0,0-2.846-1.516l9.367-9.367a5.685,5.685,0,1,0-8.026-8.033l-18.672,18.635.2-2.119a7.688,7.688,0,0,0-1.824-5.857,7.569,7.569,0,0,0-5.422-2.589l-1.693-.158a1.251,1.251,0,0,0-1.31.869l-8.307,26.331a13.221,13.221,0,0,0,3.068,13.406l10.108,10.108c5.186,5.186,13.906,4.914,19.432-.6,2.446-2.442,4.274-4.264,5.755-5.742,3.981-3.971,5.446-5.432,9.814-9.82A5.793,5.793,0,0,0,992.53,558.893Zm-11.765,16.226c-1.482,1.478-3.311,3.3-5.758,5.745-4.55,4.542-11.682,4.814-15.893.6l-10.108-10.108a10.726,10.726,0,0,1-2.45-10.882l8-25.365.718.066.064,0a5.084,5.084,0,0,1,3.671,1.731,5.2,5.2,0,0,1,1.22,3.968l-.548,5.592a1.252,1.252,0,0,0,2.13,1.008l21.139-21.109a3.193,3.193,0,1,1,4.5,4.5l-12.735,12.735c-.045.045-.092.088-.137.133-.02.02-.038.043-.058.063l-5.443,5.443a1.252,1.252,0,0,0,1.771,1.77l5.608-5.608a3.142,3.142,0,0,1,4.474-.111l.073.074a3.318,3.318,0,0,1-.116,4.68l-4.983,4.983a1.252,1.252,0,0,0,1.77,1.77l3.91-3.91a3.146,3.146,0,1,1,4.426,4.426l-3.688,3.688a1.252,1.252,0,0,0,1.77,1.77l2-2a3.233,3.233,0,0,1,4.6-.187l.069.069a3.288,3.288,0,0,1-.188,4.643C986.206,569.691,984.744,571.15,980.765,575.119Z" transform="translate(-943.509 -497.391)" fill="#ec1c40"/>
  <path id="Tracé_7724" data-name="Tracé 7724" d="M1110.89,360.724a22.7,22.7,0,0,0-22.67,22.67,1.342,1.342,0,0,0,.017.2l-3.039-3.039a1.333,1.333,0,1,0-1.885,1.885l5.3,5.3a1.333,1.333,0,0,0,1.885,0l5.3-5.3a1.333,1.333,0,1,0-1.885-1.885l-3.039,3.039a1.342,1.342,0,0,0,.017-.2,20,20,0,1,1,20,20,1.333,1.333,0,0,0,0,2.666,22.67,22.67,0,1,0,0-45.34Zm-21.337,24.19-.2-.2a1.223,1.223,0,0,0,.409,0Z" transform="translate(-1061.061 -360.724)" fill="#ec1c40"/>
</svg>
