<svg xmlns="http://www.w3.org/2000/svg" width="41.067" height="41.067" viewBox="0 0 41.067 41.067">
  <path id="Tracé_781" data-name="Tracé 781" d="M421.019,574.7v4.572a1.6,1.6,0,0,1-1.6,1.6h-4.491a1.6,1.6,0,1,1,0-3.209h2.886V574.7a1.6,1.6,0,0,1,3.209,0Zm-22.138-7.86a1.6,1.6,0,0,0,1.6-1.6v-3.609h1.6a1.6,1.6,0,0,0,1.6-1.6v-8.982a1.6,1.6,0,0,0-1.662-1.6,1.628,1.628,0,0,0-1.545,1.641v1.246h-1.6a1.6,1.6,0,1,0,0,3.208h1.6v2.888h-1.6a1.6,1.6,0,0,0-1.6,1.6v5.214a1.6,1.6,0,0,0,1.6,1.6ZM381.555,573.1a1.6,1.6,0,0,0,1.6-1.6v-1.6h1.685a1.6,1.6,0,0,0,0-3.208h-3.29a1.6,1.6,0,0,0-1.6,1.6v3.209a1.6,1.6,0,0,0,1.6,1.6Zm23.743-3.208h4.331v4.773a1.63,1.63,0,0,0,1.545,1.643,1.6,1.6,0,0,0,1.662-1.6v-1.6h1.685a1.6,1.6,0,1,0,0-3.208h-1.685v-1.6a1.6,1.6,0,0,0-1.6-1.6H405.3a1.6,1.6,0,1,0,0,3.208Zm14.116-3.208a1.6,1.6,0,1,0,1.6,1.6,1.6,1.6,0,0,0-1.6-1.6ZM405.3,573.1a1.6,1.6,0,0,1,1.6,1.6v4.572a1.6,1.6,0,0,1-1.6,1.6h-2.406a1.6,1.6,0,1,1,0-3.209h.8V574.7a1.6,1.6,0,0,1,1.6-1.6Zm0,14.2h-1.6v-1.6a1.6,1.6,0,0,0-1.6-1.6h-1.6v-1.6a1.6,1.6,0,0,0-3.209,0v3.208a1.6,1.6,0,0,0,1.6,1.6h1.6v1.6a1.6,1.6,0,0,0,1.6,1.6H405.3a1.6,1.6,0,0,0,0-3.208Zm6.416-3.209a1.6,1.6,0,0,0-1.6-1.6h-.8a1.6,1.6,0,0,0,0,3.208h.8a1.6,1.6,0,0,0,1.6-1.6Zm7.7,3.209a1.6,1.6,0,1,1,0,3.208h-7.7a1.6,1.6,0,0,1,0-3.208h3.209v-1.6a1.6,1.6,0,1,1,3.208,0v1.6Zm-20.533-11.229a1.6,1.6,0,0,1-1.6-1.6V573.1h-8.181a1.6,1.6,0,0,1,0-3.208h.8v-1.6a1.6,1.6,0,0,1,1.662-1.6,1.632,1.632,0,0,1,1.546,1.643v1.565h5.775a1.6,1.6,0,0,1,1.6,1.6v2.967a1.6,1.6,0,0,1-1.6,1.6Zm-18.929-17v-4.812a4.817,4.817,0,0,1,4.813-4.812h4.812a4.818,4.818,0,0,1,4.813,4.812v4.813a4.818,4.818,0,0,1-4.812,4.812h-4.812a4.817,4.817,0,0,1-4.813-4.812Zm3.208,0a1.606,1.606,0,0,0,1.6,1.6h4.812a1.606,1.606,0,0,0,1.6-1.6v-4.812a1.606,1.606,0,0,0-1.6-1.6h-4.812a1.606,1.606,0,0,0-1.6,1.6v4.813Zm4.011-.8a1.6,1.6,0,1,0-1.6-1.6,1.6,1.6,0,0,0,1.6,1.6Zm33.848-4.011v4.813a4.819,4.819,0,0,1-4.814,4.812h-4.813a4.817,4.817,0,0,1-4.811-4.812v-4.812a4.817,4.817,0,0,1,4.811-4.812H416.2a4.819,4.819,0,0,1,4.814,4.812Zm-3.209,0a1.606,1.606,0,0,0-1.6-1.6h-4.813a1.606,1.606,0,0,0-1.6,1.6v4.813a1.606,1.606,0,0,0,1.6,1.6H416.2a1.606,1.606,0,0,0,1.6-1.6v-4.812Zm-4.011.8a1.6,1.6,0,1,0,1.6,1.6,1.6,1.6,0,0,0-1.6-1.6Zm-19.409,25.828a4.817,4.817,0,0,0-4.812-4.812h-4.812a4.816,4.816,0,0,0-4.813,4.813v4.812a4.817,4.817,0,0,0,4.813,4.813h4.812a4.818,4.818,0,0,0,4.813-4.813v-4.812Zm-3.209,0v4.812a1.607,1.607,0,0,1-1.6,1.6h-4.812a1.607,1.607,0,0,1-1.6-1.6v-4.812a1.606,1.606,0,0,1,1.6-1.6h4.812a1.606,1.606,0,0,1,1.6,1.6Zm-4.009.8a1.6,1.6,0,1,1-1.6,1.6A1.6,1.6,0,0,1,387.171,581.677Z" transform="translate(-379.952 -549.434)" fill="#fff" fill-rule="evenodd"/>
</svg>
