<svg xmlns="http://www.w3.org/2000/svg" xmlns:xlink="http://www.w3.org/1999/xlink" width="129" height="129" viewBox="0 0 129 129">
  <defs>
    <filter id="Ellipse_442" x="0" y="0" width="129" height="129" filterUnits="userSpaceOnUse">
      <feOffset dx="1" dy="1" input="SourceAlpha"/>
      <feGaussianBlur stdDeviation="4" result="blur"/>
      <feFlood flood-opacity="0.161"/>
      <feComposite operator="in" in2="blur"/>
      <feComposite in="SourceGraphic"/>
    </filter>
  </defs>
  <g id="Groupe_9060" data-name="Groupe 9060" transform="translate(892 -1352)">
    <g transform="matrix(1, 0, 0, 1, -892, 1352)" filter="url(#Ellipse_442)">
      <g id="Ellipse_442-2" data-name="Ellipse 442" transform="translate(11 11)" fill="#fff" stroke="#fff" stroke-width="1">
        <circle cx="52.5" cy="52.5" r="52.5" stroke="none"/>
        <circle cx="52.5" cy="52.5" r="52" fill="none"/>
      </g>
    </g>
    <path id="Exclusion_13" data-name="Exclusion 13" d="M52.3,74.409H44.29l.66-32.142h6.662ZM48.247,25.6a5.024,5.024,0,0,1,3.71,1.4,4.941,4.941,0,0,1,1.4,3.66,4.814,4.814,0,0,1-5.112,5.124,4.925,4.925,0,0,1-3.661-1.4A5.061,5.061,0,0,1,43.2,30.654,4.779,4.779,0,0,1,48.247,25.6Z" transform="translate(-876.578 1359.113)" fill="#1e88e5"/>
  </g>
</svg>
