<svg xmlns="http://www.w3.org/2000/svg" width="42.128" height="12.617" viewBox="0 0 42.128 12.617">
  <g id="Groupe_7117" data-name="Groupe 7117" transform="translate(-57 -843.999)">
    <g id="Groupe_7116" data-name="Groupe 7116" transform="translate(-15007 -18609)">
      <path id="Tracé_8984" data-name="Tracé 8984" d="M9.18,3.333A2.611,2.611,0,1,0,11.79,5.944,2.613,2.613,0,0,0,9.18,3.333" transform="translate(15064.719 19453.365)" fill="#fff"/>
      <path id="Tracé_8985" data-name="Tracé 8985" d="M19.672,5.922C19.5,5.682,15.317.049,9.97,0H9.828C4.48.049.3,5.682.125,5.922a.654.654,0,0,0,0,.77C.3,6.934,4.517,12.616,9.9,12.616s9.6-5.682,9.773-5.923a.653.653,0,0,0,0-.77M9.9,10.224a3.916,3.916,0,1,1,3.915-3.916A3.921,3.921,0,0,1,9.9,10.224" transform="translate(15064 19453)" fill="#fff"/>
    </g>
    <g id="noun_Email_2334149" transform="translate(73.483 864.65)">
      <g id="Groupe_3672" data-name="Groupe 3672" transform="translate(5 -20.483)">
        <path id="Tracé_7683" data-name="Tracé 7683" d="M33.472,21.5H20.291a1.977,1.977,0,0,0-1.97,1.97.5.5,0,0,0,1,0,1.007,1.007,0,0,1,1-1H33.472a1.007,1.007,0,0,1,1,1v8.376a1.007,1.007,0,0,1-1,1H20.291a1.007,1.007,0,0,1-1-1,.5.5,0,1,0-1,0,1.977,1.977,0,0,0,1.97,1.97H33.429a1.977,1.977,0,0,0,1.97-1.97V23.47A1.913,1.913,0,0,0,33.472,21.5Z" transform="translate(-14.88 -21.5)" fill="#fff" stroke="#fff" stroke-width="0.25"/>
        <path id="Tracé_7684" data-name="Tracé 7684" d="M30.6,40.181a.5.5,0,0,0,.368.173.477.477,0,0,0,.325-.13l3.376-3.008,1.45,1.212a.425.425,0,0,0,.325.108.644.644,0,0,0,.325-.108l1.45-1.212L41.6,40.224a.477.477,0,0,0,.325.13.533.533,0,0,0,.368-.173.5.5,0,0,0-.043-.693l-3.311-2.9L42.2,33.84a.492.492,0,0,0-.628-.758l-5.151,4.35-5.151-4.35a.492.492,0,1,0-.628.758l3.268,2.749-3.268,2.9A.467.467,0,0,0,30.6,40.181Z" transform="translate(-24.414 -30.485)" fill="#fff" stroke="#fff" stroke-width="0.25"/>
        <path id="Tracé_7685" data-name="Tracé 7685" d="M10.15,58.2a.49.49,0,0,0-.5-.5H7.1a.5.5,0,1,0,0,1H9.652A.5.5,0,0,0,10.15,58.2Z" transform="translate(-5.713 -49.865)" fill="#fff" stroke="#fff" stroke-width="0.25"/>
        <path id="Tracé_7686" data-name="Tracé 7686" d="M6.937,48.2a.49.49,0,0,0-.5-.5H3a.5.5,0,0,0,0,1H6.439A.519.519,0,0,0,6.937,48.2Z" transform="translate(-2.5 -42.029)" fill="#fff" stroke="#fff" stroke-width="0.25"/>
        <path id="Tracé_7687" data-name="Tracé 7687" d="M7.1,38.6H9.652a.5.5,0,0,0,0-1H7.1a.5.5,0,0,0,0,1Z" transform="translate(-5.713 -34.115)" fill="#fff" stroke="#fff" stroke-width="0.25"/>
      </g>
    </g>
  </g>
</svg>
