<svg id="Groupe_7414" data-name="Groupe 7414" xmlns="http://www.w3.org/2000/svg" width="50.622" height="91.072" viewBox="0 0 50.622 91.072">
  <path id="Tracé_7715" data-name="Tracé 7715" d="M594.7,115.846l-.069-.069a5.415,5.415,0,0,0-3.438-1.6,5.7,5.7,0,0,0-1.064-6.363,5.5,5.5,0,0,0-3.861-1.571,5.6,5.6,0,0,0-1.328-5.689l-.074-.074a4.926,4.926,0,0,0-2.846-1.516l9.367-9.367a5.685,5.685,0,1,0-8.027-8.033L564.686,100.2l.2-2.119a7.688,7.688,0,0,0-1.824-5.857,7.569,7.569,0,0,0-5.422-2.589l-1.693-.158a1.251,1.251,0,0,0-1.31.869l-8.307,26.331a13.222,13.222,0,0,0,3.068,13.406l10.108,10.108c5.186,5.186,13.906,4.914,19.432-.6,2.446-2.442,4.273-4.264,5.755-5.742,3.981-3.971,5.446-5.432,9.814-9.82A5.793,5.793,0,0,0,594.7,115.846Zm-11.765,16.226c-1.482,1.478-3.311,3.3-5.758,5.745-4.55,4.541-11.682,4.814-15.893.6l-10.108-10.108a10.726,10.726,0,0,1-2.45-10.882l8-25.365.717.066.063,0a5.085,5.085,0,0,1,3.671,1.731,5.2,5.2,0,0,1,1.22,3.968l-.548,5.592a1.252,1.252,0,0,0,2.13,1.008l21.139-21.109a3.193,3.193,0,1,1,4.5,4.5L576.879,100.56c-.045.045-.092.088-.137.133-.02.02-.038.043-.058.063l-5.443,5.443a1.252,1.252,0,0,0,1.77,1.77l5.608-5.608a3.142,3.142,0,0,1,4.474-.111l.074.074A3.318,3.318,0,0,1,583.05,107l-4.983,4.983a1.252,1.252,0,0,0,1.77,1.77l3.91-3.91a3.146,3.146,0,1,1,4.426,4.426l-3.688,3.688a1.252,1.252,0,0,0,1.77,1.77l2-2a3.233,3.233,0,0,1,4.6-.188l.069.069a3.288,3.288,0,0,1-.188,4.643C588.374,126.644,586.911,128.1,582.932,132.072Z" transform="translate(-545.677 -52.836)" fill="#ec1c40"/>
  <path id="Tracé_7716" data-name="Tracé 7716" d="M657.5-69.028h-3.068l18.492-18.492v3.069a1.251,1.251,0,0,0,1.252,1.252,1.252,1.252,0,0,0,1.252-1.252V-90.2a1.251,1.251,0,0,0-.3-1.294c-.011-.011-.024-.021-.036-.032a1.248,1.248,0,0,0-.92-.4h-6.23a1.251,1.251,0,0,0-1.252,1.252,1.252,1.252,0,0,0,1.252,1.252h3.068L652.521-70.938v-3.069a1.251,1.251,0,0,0-1.252-1.252,1.252,1.252,0,0,0-1.252,1.252v5.752a1.251,1.251,0,0,0,.3,1.294c.011.011.024.021.036.032a1.247,1.247,0,0,0,.92.4h6.23a1.251,1.251,0,0,0,1.252-1.252A1.251,1.251,0,0,0,657.5-69.028Z" transform="translate(-633.597 91.934)" fill="#ec1c40"/>
</svg>
